<svg width="419" height="419" viewBox="0 0 419 419" fill="none" xmlns="http://www.w3.org/2000/svg">
<path d="M144.187 314H274.812V340.125H144.187V314ZM170.312 366.25H248.687V392.375H170.312V366.25ZM209.5 26.625C174.856 26.625 141.631 40.3872 117.134 64.8842C92.6371 89.3811 78.8749 122.606 78.8749 157.25C77.9915 176.234 81.6281 195.157 89.4855 212.461C97.3429 229.766 109.196 244.957 124.071 256.786C137.134 268.934 144.187 275.857 144.187 287.875H170.312C170.312 263.84 155.813 250.386 141.706 237.454C129.497 228.104 119.767 215.904 113.367 201.922C106.968 187.939 104.095 172.601 105 157.25C105 129.535 116.01 102.955 135.607 83.3573C155.205 63.7598 181.785 52.75 209.5 52.75C237.215 52.75 263.795 63.7598 283.393 83.3573C302.99 102.955 314 129.535 314 157.25C314.89 172.612 311.996 187.958 305.574 201.941C299.152 215.925 289.396 228.119 277.164 237.454C263.187 250.516 248.687 263.579 248.687 287.875H274.812C274.812 275.857 281.736 268.934 294.929 256.656C309.793 244.847 321.641 229.678 329.499 212.396C337.356 195.114 340.998 176.214 340.125 157.25C340.125 140.096 336.746 123.11 330.182 107.262C323.617 91.4138 313.995 77.0138 301.866 64.8842C289.736 52.7545 275.336 43.1328 259.488 36.5682C243.64 30.0037 226.654 26.625 209.5 26.625Z" fill="#FFD60A"/>
</svg>
