<svg width="40" height="41" viewBox="0 0 40 41" fill="none" xmlns="http://www.w3.org/2000/svg">
<g clip-path="url(#clip0_190_90)">
<rect y="0.379883" width="40" height="40" rx="6" fill="#FCEFB4"/>
<path d="M28.3359 1.8877L24.5546 5.66894L34.7109 15.8252L38.4921 12.0439C40.4453 10.0908 40.4453 6.92676 38.4921 4.97363L35.414 1.8877C33.4609 -0.0654297 30.2968 -0.0654297 28.3437 1.8877H28.3359ZM22.789 7.43457L4.57807 25.6533C3.76557 26.4658 3.17182 27.4736 2.8437 28.5752L0.0780718 37.9736C-0.117241 38.6377 0.0624468 39.3486 0.546822 39.833C1.0312 40.3174 1.74213 40.4971 2.39838 40.3096L11.7968 37.5439C12.8984 37.2158 13.9062 36.6221 14.7187 35.8096L32.9453 17.5908L22.789 7.43457Z" fill="#F9DC5C"/>
</g>
<defs>
<clipPath id="clip0_190_90">
<rect y="0.379883" width="40" height="40" rx="6" fill="white"/>
</clipPath>
</defs>
</svg>
