<svg width="36" height="40" viewBox="0 0 36 40" fill="none" xmlns="http://www.w3.org/2000/svg">
<rect x="0.5" width="35" height="40" rx="6" fill="#FF2C55"/>
<path d="M15.5 0C16.8828 0 18 1.11719 18 2.5V11.25H13V2.5C13 1.11719 14.1172 0 15.5 0ZM5.5 5C5.5 3.61719 6.61719 2.5 8 2.5C9.38281 2.5 10.5 3.61719 10.5 5V11.25H5.5V5ZM20.5 5C20.5 3.61719 21.6172 2.5 23 2.5C24.3828 2.5 25.5 3.61719 25.5 5V12.5C25.5 13.8828 24.3828 15 23 15C21.6172 15 20.5 13.8828 20.5 12.5V5ZM28 10C28 8.61719 29.1172 7.5 30.5 7.5C31.8828 7.5 33 8.61719 33 10V15C33 16.3828 31.8828 17.5 30.5 17.5C29.1172 17.5 28 16.3828 28 15V10ZM20.5 16.875V16.8281C21.2344 17.25 22.0859 17.5 23 17.5C24.0312 17.5 24.9844 17.1875 25.7812 16.6562C26.4609 18.6016 28.3203 20 30.5 20C31.4141 20 32.2656 19.7578 33 19.3281V20C33 24.0859 31.0391 27.7188 28 30V37.5C28 38.8828 26.8828 40 25.5 40H13C11.6172 40 10.5 38.8828 10.5 37.5V31.375C9.14844 30.7578 7.90625 29.9062 6.83594 28.8359L5.92969 27.9297C4.05469 26.0547 3 23.5078 3 20.8594V18.75C3 15.9922 5.24219 13.75 8 13.75H14.875C16.6016 13.75 18 15.1484 18 16.875C18 18.6016 16.6016 20 14.875 20H10.5C9.8125 20 9.25 20.5625 9.25 21.25C9.25 21.9375 9.8125 22.5 10.5 22.5H14.875C17.9844 22.5 20.5 19.9844 20.5 16.875Z" fill="#7D1128"/>
</svg>
