<svg width="41" height="40" viewBox="0 0 41 40" fill="none" xmlns="http://www.w3.org/2000/svg">
<rect x="0.5" width="40" height="40" rx="6" fill="#FF8C2A"/>
<path fill-rule="evenodd" clip-rule="evenodd" d="M18.8335 5C17.5074 5 16.2356 5.52678 15.298 6.46447C14.3603 7.40215 13.8335 8.67392 13.8335 10V11.6667H8.8335C7.50741 11.6667 6.23564 12.1935 5.29796 13.1311C4.36028 14.0688 3.8335 15.3406 3.8335 16.6667V30C3.8335 31.3261 4.36028 32.5979 5.29796 33.5355C6.23564 34.4732 7.50741 35 8.8335 35H32.1668C33.4929 35 34.7647 34.4732 35.7024 33.5355C36.64 32.5979 37.1668 31.3261 37.1668 30V16.6667C37.1668 15.3406 36.64 14.0688 35.7024 13.1311C34.7647 12.1935 33.4929 11.6667 32.1668 11.6667H27.1668V10C27.1668 8.67392 26.64 7.40215 25.7024 6.46447C24.7647 5.52678 23.4929 5 22.1668 5H18.8335ZM23.8335 11.6667H17.1668V10C17.1668 9.55797 17.3424 9.13405 17.655 8.82149C17.9675 8.50893 18.3915 8.33333 18.8335 8.33333H22.1668C22.6089 8.33333 23.0328 8.50893 23.3453 8.82149C23.6579 9.13405 23.8335 9.55797 23.8335 10V11.6667Z" fill="#CC5803"/>
</svg>
