<svg width="41" height="41" viewBox="0 0 41 41" fill="none" xmlns="http://www.w3.org/2000/svg">
<path d="M37.5544 10.0216C36.2825 10.5843 34.9338 10.9539 33.5527 11.1183C35.0078 10.2469 36.0965 8.8762 36.6161 7.26164C35.2494 8.07497 33.7511 8.64497 32.1911 8.9533C31.1421 7.83094 29.7517 7.08658 28.236 6.83595C26.7203 6.58531 25.1643 6.84246 23.8098 7.56739C22.4554 8.29233 21.3784 9.44444 20.7462 10.8446C20.1141 12.2448 19.9623 13.8146 20.3144 15.31C17.5426 15.1713 14.831 14.4512 12.3556 13.1964C9.88024 11.9416 7.69645 10.1803 5.94605 8.02664C5.32654 9.09072 5.00098 10.3003 5.00272 11.5316C5.00272 13.9483 6.23439 16.0833 8.10272 17.3333C6.99608 17.2984 5.9138 16.9995 4.94605 16.4616V16.5466C4.946 18.1564 5.50278 19.7167 6.52194 20.9628C7.5411 22.2088 8.95991 23.064 10.5377 23.3833C9.51046 23.662 8.43321 23.703 7.38772 23.5033C7.83259 24.889 8.69974 26.1008 9.86772 26.969C11.0357 27.8372 12.446 28.3183 13.9011 28.345C12.455 29.4807 10.7992 30.3203 9.0284 30.8156C7.25761 31.3109 5.40653 31.4523 3.58105 31.2316C6.76726 33.2806 10.4762 34.3684 14.2644 34.365C27.0877 34.365 34.0977 23.7433 34.0977 14.5316C34.0977 14.2316 34.0911 13.9283 34.0777 13.63C35.4417 12.6439 36.619 11.4209 37.5544 10.0216Z" fill="white"/>
</svg>
