<svg width="41" height="41" viewBox="0 0 41 41" fill="none" xmlns="http://www.w3.org/2000/svg">
<path d="M20.941 7.26166C21.831 7.26666 24.0577 7.28832 26.4243 7.38332L27.2643 7.41999C29.646 7.53166 32.026 7.72499 33.2077 8.05332C34.7827 8.49666 36.0193 9.78666 36.4377 11.4233C37.1043 14.0233 37.1877 19.0933 37.1977 20.3217L37.1993 20.575V20.865C37.1877 22.0933 37.1043 27.165 36.4377 29.7633C36.0143 31.405 34.776 32.6967 33.2077 33.1333C32.026 33.4617 29.646 33.655 27.2643 33.7667L26.4243 33.805C24.0577 33.8983 21.831 33.9217 20.941 33.925L20.5493 33.9267H20.1243C18.241 33.915 10.3643 33.83 7.85768 33.1333C6.28434 32.69 5.04601 31.4 4.62768 29.7633C3.96101 27.1633 3.87768 22.0933 3.86768 20.865V20.3217C3.87768 19.0933 3.96101 14.0217 4.62768 11.4233C5.05101 9.78166 6.28934 8.48999 7.85934 8.05499C10.3643 7.35666 18.2427 7.27166 20.126 7.26166H20.941ZM17.1993 14.7617V26.4283L27.1993 20.595L17.1993 14.7617Z" fill="white"/>
</svg>
