<svg width="41" height="40" viewBox="0 0 41 40" fill="none" xmlns="http://www.w3.org/2000/svg">
<rect x="0.5" width="40" height="40" rx="6" fill="#C7F9CC"/>
<path fill-rule="evenodd" clip-rule="evenodd" d="M15.4368 30.7817C10.5318 27.0233 3.8335 20.815 3.8335 14.945C3.8335 5.13834 13.0002 1.47667 20.5002 9.05C28.0002 1.47667 37.1668 5.13834 37.1668 14.9433C37.1668 20.815 30.4668 27.0233 25.5635 30.7817C23.3435 32.4817 22.2335 33.3333 20.5002 33.3333C18.7668 33.3333 17.6568 32.4833 15.4368 30.7817ZM28.0002 10.4167C28.3317 10.4167 28.6496 10.5484 28.884 10.7828C29.1185 11.0172 29.2502 11.3351 29.2502 11.6667V13.75H31.3335C31.665 13.75 31.983 13.8817 32.2174 14.1161C32.4518 14.3505 32.5835 14.6685 32.5835 15C32.5835 15.3315 32.4518 15.6495 32.2174 15.8839C31.983 16.1183 31.665 16.25 31.3335 16.25H29.2502V18.3333C29.2502 18.6649 29.1185 18.9828 28.884 19.2172C28.6496 19.4516 28.3317 19.5833 28.0002 19.5833C27.6686 19.5833 27.3507 19.4516 27.1163 19.2172C26.8819 18.9828 26.7502 18.6649 26.7502 18.3333V16.25H24.6668C24.3353 16.25 24.0174 16.1183 23.7829 15.8839C23.5485 15.6495 23.4168 15.3315 23.4168 15C23.4168 14.6685 23.5485 14.3505 23.7829 14.1161C24.0174 13.8817 24.3353 13.75 24.6668 13.75H26.7502V11.6667C26.7502 11.3351 26.8819 11.0172 27.1163 10.7828C27.3507 10.5484 27.6686 10.4167 28.0002 10.4167Z" fill="#57CC99"/>
</svg>
