<svg width="41" height="40" viewBox="0 0 41 40" fill="none" xmlns="http://www.w3.org/2000/svg">
<rect x="0.5" width="40" height="40" rx="6" fill="#3F8EFC"/>
<path d="M20.5002 3.33325C17.406 3.33325 14.4385 4.56241 12.2506 6.75034C10.0627 8.93826 8.8335 11.9057 8.8335 14.9999C8.8335 18.9666 10.8168 22.4499 13.8335 24.5666V28.3333C13.8335 28.7753 14.0091 29.1992 14.3217 29.5118C14.6342 29.8243 15.0581 29.9999 15.5002 29.9999H25.5002C25.9422 29.9999 26.3661 29.8243 26.6787 29.5118C26.9912 29.1992 27.1668 28.7753 27.1668 28.3333V24.5666C30.1835 22.4499 32.1668 18.9666 32.1668 14.9999C32.1668 11.9057 30.9377 8.93826 28.7497 6.75034C26.5618 4.56241 23.5944 3.33325 20.5002 3.33325ZM15.5002 34.9999C15.5002 35.4419 15.6758 35.8659 15.9883 36.1784C16.3009 36.491 16.7248 36.6666 17.1668 36.6666H23.8335C24.2755 36.6666 24.6994 36.491 25.012 36.1784C25.3246 35.8659 25.5002 35.4419 25.5002 34.9999V33.3333H15.5002V34.9999Z" fill="#3B28CC"/>
</svg>
